HIERARCHY
ROOT Hips
{
	OFFSET 0.00 0.00 0.00
	CHANNELS 6 Xposition Yposition Zposition Xrotation Yrotation Zrotation
	JOINT LeftUpLeg
	{
		OFFSET 3.34807 0.00000 0.00000
		CHANNELS 3 Xrotation Yrotation Zrotation
		JOINT LeftLeg
		{
			OFFSET 0.00000 -16.98552 0.00000
			CHANNELS 3 Xrotation Yrotation Zrotation
			JOINT LeftFoot
			{
				OFFSET 0.00000 -16.83686 0.00000
				CHANNELS 3 Xrotation Yrotation Zrotation
				JOINT LeftToeBase
				{
					OFFSET 0.00000 -1.59599 5.95633
					CHANNELS 3 Xrotation Yrotation Zrotation
					End Site
					{
						OFFSET 0.00000 0.00000 2.95275
					}
				}
			}
		}
	}
	JOINT RightUpLeg
	{
		OFFSET -3.34807 0.00000 0.00000
		CHANNELS 3 Xrotation Yrotation Zrotation
		JOINT RightLeg
		{
			OFFSET 0.00000 -16.98552 0.00000
			CHANNELS 3 Xrotation Yrotation Zrotation
			JOINT RightFoot
			{
				OFFSET 0.00000 -16.83686 0.00000
				CHANNELS 3 Xrotation Yrotation Zrotation
				JOINT RightToeBase
				{
					OFFSET 0.00000 -1.59599 5.95633
					CHANNELS 3 Xrotation Yrotation Zrotation
					End Site
					{
						OFFSET 0.00000 0.00000 2.95275
					}
				}
			}
		}
	}
	JOINT Spine
	{
		OFFSET 0.00000 0.03937 0.00000
		CHANNELS 3 Xrotation Yrotation Zrotation
		JOINT Spine1
		{
			OFFSET 0.00000 7.93124 0.00000
			CHANNELS 3 Xrotation Yrotation Zrotation
			JOINT Neck
			{
				OFFSET 0.00000 8.48368 0.00000
				CHANNELS 3 Xrotation Yrotation Zrotation
				JOINT Head
				{
					OFFSET 0.00000 6.65077 0.00000
					CHANNELS 3 Xrotation Yrotation Zrotation
					End Site
					{
						OFFSET 0.00000 4.52755 0.00000
					}
				}
			}
			JOINT LeftShoulder
			{
				OFFSET 0.00000 8.48368 0.00000
				CHANNELS 3 Xrotation Yrotation Zrotation
				JOINT LeftArm
				{
					OFFSET 7.74502 -0.00003 0.00000
					CHANNELS 3 Xrotation Yrotation Zrotation
					JOINT LeftForeArm
					{
						OFFSET 12.49824 -0.00005 0.00000
						CHANNELS 3 Xrotation Yrotation Zrotation
						JOINT LeftHand
						{
							OFFSET 9.88337 -0.00004 0.00000
							CHANNELS 3 Xrotation Yrotation Zrotation
							JOINT LeftHandThumb
							{
								OFFSET 0.00000 0.00000 0.00000
								CHANNELS 3 Xrotation Yrotation Zrotation
								End Site
								{
									OFFSET 0.00000 0.00000 3.93700
								}
							}
							JOINT L_Wrist_End
							{
								OFFSET 3.93700 -0.00001 0.00000
								CHANNELS 3 Xrotation Yrotation Zrotation
							}
						}
					}
				}
			}
			JOINT RightShoulder
			{
				OFFSET 0.00000 8.48368 0.00000
				CHANNELS 3 Xrotation Yrotation Zrotation
				JOINT RightArm
				{
					OFFSET -7.74502 -0.00003 0.00000
					CHANNELS 3 Xrotation Yrotation Zrotation
					JOINT RightForeArm
					{
						OFFSET -12.49824 -0.00005 0.00000
						CHANNELS 3 Xrotation Yrotation Zrotation
						JOINT RightHand
						{
							OFFSET -9.88337 -0.00004 0.00000
							CHANNELS 3 Xrotation Yrotation Zrotation
							JOINT RightHandThumb
							{
								OFFSET 0.00000 0.00000 0.00000
								CHANNELS 3 Xrotation Yrotation Zrotation
								End Site
								{
									OFFSET 0.00000 0.00000 3.93700
								}
							}
							JOINT R_Wrist_End
							{
								OFFSET -5.39369 -0.00002 0.00000
								CHANNELS 3 Xrotation Yrotation Zrotation
							}
						}
					}
				}
			}
		}
	}
}
MOTION
Frames: 9
Frame Time: 0.033332
 1.6086 38.2016 -1.2789 1.4857 -7.5087 -11.4337 -6.0320 29.4224 15.5457 9.8410 -0.0000 0.0000 6.9153 2.8630 -27.7547 -2.8645 0.0000 -0.0000 -67.5375 -10.6888 -0.4320 103.5744 -0.0000 0.0000 9.2680 -11.6236 29.0489 5.8381 -0.0000 -0.0000 -0.8657 -7.3965 0.9977 17.8347 -9.9352 2.6098 -12.3435 13.1235 4.1100 -5.4901 -3.5171 0.1187 -18.6164 7.9313 31.1224 -62.8031 -12.2177 -74.2898 -0.0002 -49.6697 -0.0001 -34.5774 -52.5258 40.1030 -0.0000 0.0000 -0.0000 -0.0000 0.0000 -0.0000 26.9001 -18.2834 -15.7466 3.4202 32.7138 77.1880 -0.0000 6.4078 0.0000 83.1083 -67.4240 -102.8460 -0.0000 0.0000 -0.0000 -0.0000 0.0000 -0.0000
 1.6310 37.5823 -1.0677 0.7339 -8.5821 -11.3079 -4.8172 28.8391 15.1924 11.6641 -0.0000 0.0000 1.0986 4.4583 -26.1386 -2.3348 0.0000 -0.0000 -64.2419 -10.3539 0.1443 101.2300 -0.0000 0.0000 10.3226 -11.8348 29.1386 5.8771 -0.0000 0.0000 -1.0756 -7.1234 0.4384 18.3463 -9.5756 2.7924 -11.8831 13.0580 3.8202 -6.8929 -3.3088 0.2705 -18.6345 8.8111 30.8831 -63.7727 -13.7548 -74.4277 -0.0002 -48.0409 -0.0001 -33.9868 -52.4666 40.3021 -0.0000 0.0000 -0.0000 -0.0000 0.0000 -0.0000 27.5353 -19.1083 -16.0736 4.4126 33.9506 75.1645 -0.0000 5.7446 0.0000 85.8746 -66.6951 -102.8659 -0.0000 0.0000 -0.0000 -0.0000 0.0000 -0.0000
 1.6639 36.9141 -0.8894 0.3789 -8.9182 -10.5495 -3.6378 27.0858 14.2461 13.4442 -0.0000 0.0000 -4.9436 5.1955 -26.0801 0.1729 -0.0000 0.0000 -60.1479 -9.8100 -0.2285 97.4153 -0.0000 0.0000 11.8670 -12.8785 29.4951 5.8237 0.0000 0.0000 -1.1334 -6.7078 -0.1118 18.3009 -9.2947 2.4444 -11.4120 12.6084 3.4747 -8.2877 -3.4380 0.6098 -18.4674 9.3542 29.8872 -64.3651 -14.8782 -75.5008 -0.0002 -47.1203 -0.0001 -32.1870 -51.9336 39.7039 -0.0000 0.0000 -0.0000 -0.0000 0.0000 -0.0000 27.3761 -19.3136 -15.7334 3.9416 32.8999 75.0169 -0.0000 3.0249 0.0000 88.6787 -67.7538 -103.0327 -0.0000 0.0000 -0.0000 -0.0000 0.0000 -0.0000
 1.6939 36.3920 -0.7251 0.5732 -8.8764 -8.8615 -2.3655 24.6748 12.2596 14.4793 -0.0000 0.0000 -9.0962 5.4890 -24.7426 1.4646 -0.0000 -0.0000 -55.4027 -8.6135 -1.2170 91.7222 -0.0000 0.0000 12.4141 -13.4269 28.9723 4.2990 -0.0000 -0.0000 -1.2802 -5.9556 -0.7767 17.7983 -9.0088 1.2724 -11.7106 11.7558 3.4535 -8.4347 -4.1631 1.0680 -17.4903 10.1961 28.4752 -64.7841 -15.2569 -78.0938 -0.0002 -47.1393 -0.0001 -30.5432 -51.9251 39.6641 -0.0000 0.0000 -0.0000 -0.0000 0.0000 -0.0000 26.9136 -19.0729 -14.4109 1.5440 30.4143 76.7872 0.0000 -1.1234 0.0000 90.3552 -70.3084 -103.0643 -0.0000 0.0000 -0.0000 -0.0000 0.0000 -0.0000
 1.6791 36.0720 -0.5870 1.3247 -8.6052 -7.4446 -1.6212 22.0960 10.4482 14.4528 -0.0000 0.0000 -11.3474 6.7587 -23.9150 1.8939 0.0000 -0.0000 -50.0496 -7.5510 -1.7884 84.0283 -0.0000 0.0000 11.4936 -13.1793 28.3378 2.7666 0.0000 -0.0000 -1.5325 -5.3398 -1.1211 17.1901 -8.7083 0.4367 -12.0322 10.9490 3.3484 -8.7460 -4.8298 1.4638 -16.1602 11.3419 27.0180 -63.1845 -14.5611 -81.5754 -0.0002 -48.3035 -0.0001 -29.7486 -52.2658 40.2879 -0.0000 0.0000 -0.0000 -0.0000 0.0000 -0.0000 25.9194 -18.4587 -13.6269 -2.2071 28.4192 80.3899 0.0000 -4.7078 0.0000 91.9991 -73.4895 -101.0441 -0.0000 0.0000 -0.0000 -0.0000 0.0000 -0.0000
 1.6017 35.9257 -0.4791 2.0952 -7.7416 -6.0670 -1.6369 19.6056 8.9803 14.8980 -0.0000 0.0000 -12.1114 7.8018 -23.5912 1.7098 0.0000 -0.0000 -44.1384 -6.3887 -2.2247 75.0447 -0.0000 0.0000 11.0685 -11.7225 27.0048 0.3365 -0.0000 0.0000 -1.3851 -5.0098 -1.4058 16.5943 -8.6221 -0.2485 -12.1983 10.1151 3.0168 -9.9601 -5.5048 2.3116 -15.2320 12.3405 25.9074 -58.9601 -14.3223 -85.2456 -0.0002 -49.2562 -0.0001 -28.5816 -52.4938 41.7635 -0.0000 0.0000 -0.0000 -0.0000 0.0000 -0.0000 24.7048 -17.6261 -12.6024 -6.6460 27.4260 84.5897 0.0000 -6.3409 0.0000 91.5816 -75.7626 -99.7370 -0.0000 0.0000 -0.0000 -0.0000 0.0000 -0.0000
 1.4433 35.8924 -0.4087 3.0699 -6.6114 -4.8032 -2.1527 16.6395 7.8533 15.3223 -0.0000 0.0000 -11.9227 8.7068 -22.9376 1.0457 -0.0000 0.0000 -38.3040 -5.0231 -2.1651 65.6488 -0.0000 0.0000 10.3319 -10.9860 25.2621 -2.5934 0.0000 0.0000 -1.0831 -4.7361 -1.5474 15.8145 -8.5484 -0.8590 -11.9956 9.5194 2.9960 -11.8316 -6.3277 2.4440 -13.9740 12.9882 24.9013 -53.7124 -14.3657 -88.7746 -0.0002 -47.8076 -0.0001 -29.8999 -52.7840 40.9267 -0.0000 0.0000 -0.0000 -0.0000 0.0000 -0.0000 23.6736 -16.4368 -11.0887 -11.5970 27.1566 88.8459 0.0000 -5.7672 0.0000 89.0519 -77.8999 -98.8156 -0.0000 0.0000 -0.0000 -0.0000 0.0000 -0.0000
 1.2309 35.8623 -0.3671 4.0698 -5.1646 -4.0525 -3.0867 13.4012 7.5112 15.9819 -0.0000 0.0000 -11.9564 9.1386 -22.5594 0.6598 0.0000 0.0000 -32.8527 -4.3190 -1.7377 56.8018 -0.0000 0.0000 10.2103 -11.9583 24.2187 -8.3886 0.0000 0.0000 -0.8168 -4.5883 -1.3573 15.4712 -8.4194 -0.9489 -11.7385 8.9734 3.0201 -13.9205 -6.9266 1.9849 -13.0554 12.9181 24.1333 -47.5505 -15.5837 -91.7341 -0.0002 -43.4285 -0.0001 -28.9478 -52.0496 41.2193 -0.0000 0.0000 -0.0000 -0.0000 0.0000 -0.0000 22.0144 -14.8184 -9.6617 -16.7522 27.4326 92.7510 0.0000 -3.6485 0.0000 79.7029 -79.8413 -103.7069 -0.0000 0.0000 -0.0000 -0.0000 0.0000 -0.0000
 0.9835 35.7010 -0.3668 4.9269 -3.6543 -3.5130 -5.1173 9.8101 7.7535 18.9066 -0.0000 0.0000 -13.2073 9.0481 -22.6209 -0.1515 0.0000 0.0000 -28.3797 -4.7245 -1.5179 50.9793 -0.0000 0.0000 1.9819 -14.2531 26.0303 -5.8752 0.0000 -0.0000 -0.4622 -4.5410 -1.1093 15.4370 -8.2584 -0.6514 -12.0138 8.8758 3.7240 -15.2971 -7.2843 0.4520 -12.6966 11.9442 23.6647 -40.9456 -18.2716 -93.9193 -0.0002 -36.0176 -0.0000 -27.3552 -50.4072 42.7386 -0.0000 0.0000 -0.0000 -0.0000 0.0000 -0.0000 20.6594 -12.9831 -8.6289 -23.1568 27.2359 96.0792 0.0000 -0.3507 0.0000 70.1042 -81.6257 -109.1120 -0.0000 0.0000 -0.0000 -0.0000 0.0000 -0.0000
